<?xml version="1.0" encoding="UTF-8" standalone="no"?>
<svg
   xmlns:dc="http://purl.org/dc/elements/1.1/"
   xmlns:cc="http://creativecommons.org/ns#"
   xmlns:rdf="http://www.w3.org/1999/02/22-rdf-syntax-ns#"
   xmlns:svg="http://www.w3.org/2000/svg"
   xmlns="http://www.w3.org/2000/svg"
   id="svg36"
   xml:space="preserve"
   style="enable-background:new 0 0 64 64;"
   viewBox="0 0 64 64"
   y="0px"
   x="0px"
   version="1.1"><metadata
   id="metadata42"><rdf:RDF><cc:Work
       rdf:about=""><dc:format>image/svg+xml</dc:format><dc:type
         rdf:resource="http://purl.org/dc/dcmitype/StillImage" /><dc:title></dc:title></cc:Work></rdf:RDF></metadata><defs
   id="defs40" />
<style
   id="style2"
   type="text/css">
	.st0{fill:#E0E0D1;}
	.st1{opacity:0.2;}
	.st2{fill:#231F20;}
	.st3{fill:#4F5D73;}
	.st4{fill:#C75C5C;}
	.st5{fill:#F5CF87;}
</style>
<g
   id="Layer_1">
	<g
   id="g6">
		<circle
   style="fill:#999999"
   id="circle4"
   r="32"
   cy="32"
   cx="32"
   class="st0" />
	</g>
	<g
   id="g10"
   class="st1">
		<path
   id="path8"
   d="M52,44c0,2.2-1.8,4-4,4H16c-2.2,0-4-1.8-4-4V26c0-2.2,1.8-4,4-4h32c2.2,0,4,1.8,4,4V44z"
   class="st2" />
	</g>
	<g
   id="g14">
		<path
   style="fill:#53536c"
   id="path12"
   d="M38,17v20H26V17H38 M38,13H26c-2.2,0-4,1.8-4,4v20c0,2.2,1.8,4,4,4h12c2.2,0,4-1.8,4-4V17    C42,14.8,40.2,13,38,13L38,13z"
   class="st3" />
	</g>
	<g
   id="g20">
		<g
   id="g18">
			<path
   style="fill:#5f5fd3"
   id="path16"
   d="M12,29v13c0,2.2,1.8,4,4,4h32c2.2,0,4-1.8,4-4V29H12z"
   class="st4" />
		</g>
	</g>
	<g
   id="g24">
		<path
   style="fill:#6f6f91"
   id="path22"
   d="M36,28v3h-8v-3H36 M36,24h-8c-2.2,0-4,1.8-4,4v3c0,2.2,1.8,4,4,4h8c2.2,0,4-1.8,4-4v-3C40,25.8,38.2,24,36,24    L36,24z"
   class="st5" />
	</g>
	<g
   id="g28"
   class="st1">
		<path
   style="fill:#000000"
   id="path26"
   d="M52,26c0-2.2-1.8-4-4-4H16c-2.2,0-4,1.8-4,4v5h40V26z"
   class="st2" />
	</g>
	<g
   id="g32">
		<path
   style="fill:#5f5fd3"
   id="path30"
   d="M52,24c0-2.2-1.8-4-4-4H16c-2.2,0-4,1.8-4,4v5h40V24z"
   class="st4" />
	</g>
</g>
<g
   id="Layer_2">
</g>
</svg>